<svg width="128" height="128" viewBox="0 0 128 128" fill="none" xmlns="http://www.w3.org/2000/svg">
<path d="M7.59212 59.9961C3.39561 71.0032 2.12585 83.8759 7.91098 94.1603C10.4221 98.6194 14.1061 102.333 18.0293 105.666C42.4283 126.415 81.2163 137.612 108.73 117.228C123.979 105.935 125.767 82.481 122.806 64.9758C120.255 49.8906 112.403 35.5728 100.394 25.8596C83.6816 12.354 65.2616 10.7071 46.3745 19.2721C28.7853 27.2544 14.4079 42.1156 7.59212 59.9961Z" fill="#FFE4DC"/>
<path d="M74.0764 9.56811C78.5546 5.26317 85.2878 3.91312 90.8088 7.2324C96.4984 10.653 99.4533 17.2848 97.7966 23.3238M29.0191 16.1685C23.4639 13.0274 16.3926 13.4983 11.8958 18.3229C7.36806 23.1808 6.35641 30.3733 9.61732 35.7223M57.8334 17.9936L46.5601 19.5779C27.8819 22.203 14.8694 39.4806 17.4958 58.1686L19.0292 69.0793C21.6556 87.7672 38.9264 100.789 57.6046 98.1638L68.8779 96.5794C87.5561 93.9543 100.569 76.6767 97.9422 57.9888L96.4088 47.0781C93.7823 28.3901 76.5115 15.3685 57.8334 17.9936Z" stroke="#E06742" stroke-width="4.5" stroke-linecap="round" stroke-linejoin="round"/>
<path d="M54.5218 35.3361L57.6921 57.8945L77.4204 55.1219" stroke="#E06742" stroke-width="4.5" stroke-linecap="round" stroke-linejoin="round"/>
<path d="M31.0508 93.2686L21.3627 106.132" stroke="#E06742" stroke-width="4.5" stroke-linecap="round" stroke-linejoin="round"/>
<path d="M93.0527 84.5557L105.911 94.2505" stroke="#E06742" stroke-width="4.5" stroke-linecap="round" stroke-linejoin="round"/>
</svg>
