<svg width="128" height="128" viewBox="0 0 128 128" fill="none" xmlns="http://www.w3.org/2000/svg">
<path d="M7.59212 59.9961C3.39561 71.0032 2.12585 83.8759 7.91098 94.1603C10.4221 98.6194 14.1061 102.333 18.0293 105.666C42.4283 126.415 81.2163 137.612 108.73 117.228C123.979 105.935 125.767 82.481 122.806 64.9758C120.255 49.8906 112.403 35.5728 100.394 25.8596C83.6816 12.354 65.2616 10.7071 46.3745 19.2721C28.7853 27.2544 14.4079 42.1156 7.59212 59.9961Z" fill="#FFE4DC"/>
<path d="M115 56.0008C115 30.4422 96.7866 8.52461 71.6928 3.88545C70.569 3.67759 69.4885 4.42042 69.2809 5.54502C69.073 6.6694 69.8158 7.74928 70.9404 7.95714C94.071 12.2334 110.859 32.4384 110.859 56.0008C110.859 62.6438 109.559 69.0469 106.996 75.0731C103.979 72.9703 100.315 71.7352 96.3672 71.7352C86.0931 71.7352 77.7344 80.0939 77.7344 90.368C77.7344 94.3159 78.9695 97.9801 81.0723 100.997C75.0459 103.56 68.643 104.86 62 104.86C35.0588 104.86 13.1406 82.942 13.1406 56.0008C13.1406 32.4386 29.929 12.2334 53.0598 7.95714C54.1842 7.74928 54.9272 6.6692 54.7193 5.54502C54.5115 4.42084 53.4318 3.67759 52.3072 3.88545C27.2132 8.52461 9 30.4422 9 56.0008C9 70.1574 14.513 83.4668 24.5234 93.4774C34.534 103.488 47.8434 109.001 62 109.001C69.6711 109.001 77.0497 107.404 83.9553 104.252C87.2531 107.203 91.6038 109.001 96.3672 109.001C106.641 109.001 115 100.642 115 90.368C115 85.6048 113.203 81.2541 110.251 77.9563C113.403 71.0505 115 63.6719 115 56.0008ZM96.3672 104.86C88.3762 104.86 81.875 98.359 81.875 90.368C81.875 82.377 88.3762 75.8758 96.3672 75.8758C104.358 75.8758 110.859 82.377 110.859 90.368C110.859 98.359 104.358 104.86 96.3672 104.86Z" fill="#E06742"/>
<path d="M62 7.14062C63.1434 7.14062 64.0703 6.21371 64.0703 5.07031C64.0703 3.92691 63.1434 3 62 3C60.8566 3 59.9297 3.92691 59.9297 5.07031C59.9297 6.21371 60.8566 7.14062 62 7.14062Z" fill="#E06742"/>
<path d="M103.072 83.662C102.264 82.8535 100.953 82.8535 100.144 83.662L96.3671 87.4391L92.5901 83.662C91.7814 82.8535 90.4709 82.8535 89.662 83.662C88.8535 84.4705 88.8535 85.7814 89.662 86.5901L93.4391 90.3671L89.662 94.1442C88.8535 94.9527 88.8535 96.2636 89.662 97.0722C90.0663 97.4766 90.5961 97.6786 91.1259 97.6786C91.6559 97.6786 92.1855 97.4766 92.5898 97.0722L96.3671 93.2952L100.144 97.0722C100.549 97.4766 101.078 97.6786 101.608 97.6786C102.138 97.6786 102.668 97.4766 103.072 97.0722C103.88 96.2638 103.88 94.9529 103.072 94.1442L99.2952 90.3671L103.072 86.5901C103.881 85.7816 103.881 84.4707 103.072 83.662Z" fill="#E06742"/>
<path d="M51.1688 26.3931C51.1249 26.4285 51.0825 26.4656 51.0417 26.5045C49.4391 28.028 47.4698 28.2088 45.1895 28.4181L45.0436 28.4313C39.8811 28.9065 35.5895 32.5981 34.3649 37.6175C32.7625 44.1852 33.8867 53.6163 38.5362 58.0561C39.6407 59.1678 40.8756 60.0156 42.07 60.8357C42.5327 61.1533 42.9871 61.4659 43.4215 61.7857C42.0307 62.1975 40.6908 62.8302 39.4668 63.6664L33.3892 67.8112C30.8646 69.0761 29.2432 71.6936 29.2432 74.5293C29.2432 75.6456 29.4858 76.7243 29.9634 77.7329C31.7311 81.4773 36.2162 83.0853 39.9624 81.3171C40.1111 81.2469 40.2508 81.1593 40.3785 81.0562L42.79 79.1107C43.5536 81.5719 44.813 83.4325 46.5976 84.7509C48.6791 86.2885 51.3038 87.056 54.2788 87.0558C57.4005 87.0555 60.9074 86.2102 64.5722 84.5227C73.339 80.4858 83.1216 71.2907 83.8841 60.6423C84.0348 58.5362 83.799 56.3988 83.1814 54.2612C86.8148 53.4374 89.9617 51.3133 92.0935 48.2293C94.3485 44.9676 95.1975 41.0232 94.4849 37.1229C93.014 29.0717 85.2664 23.7193 77.2158 25.1894C73.3305 25.8981 69.1617 28.227 66.0643 31.4192C62.4984 35.0942 60.9243 39.251 61.6318 43.1229C61.716 43.585 61.8336 44.0413 61.9831 44.4899L54.3511 41.9689C54.3306 41.9623 54.3101 41.9557 54.2896 41.9497C52.4048 41.3915 50.3202 41.6246 48.5695 42.589C46.7971 43.5653 45.5204 45.1646 44.9765 47.0844C43.9068 50.8031 45.8044 54.6922 49.3908 56.1307C49.4111 56.1388 49.4316 56.1466 49.4521 56.1541C49.6455 56.2247 49.9034 56.3342 50.1916 56.4638C49.8643 56.8669 49.4616 57.382 48.93 58.0782C48.4671 58.684 48.0257 59.2833 47.6029 59.8755C46.5802 58.9113 45.4564 58.1376 44.4134 57.4217C43.3221 56.6725 42.2913 55.9648 41.4576 55.1214C41.4419 55.1057 41.4261 55.0901 41.41 55.0748C38.3635 52.1851 36.9509 44.486 38.3873 38.5986C39.1931 35.2965 42.0205 32.8674 45.4229 32.5544L45.5676 32.5411C48.2101 32.2987 51.2028 32.024 53.8331 29.5632C56.6411 27.261 57.0288 24.4483 57.3125 22.3904C57.6572 19.8905 57.8143 18.7495 61.3761 18.0108C62.4957 17.7788 63.2151 16.6829 62.9828 15.5633C62.7508 14.4437 61.6543 13.7247 60.5353 13.9565C54.1113 15.2886 53.5907 19.0665 53.2106 21.825C52.9576 23.6616 52.7576 25.1122 51.1688 26.3931ZM55.6705 55.4589C55.5562 54.7986 55.1295 54.2347 54.5254 53.9453C54.3515 53.862 54.1434 53.7606 53.9151 53.6492C52.9325 53.1703 51.7131 52.5762 50.9075 52.2778C49.3165 51.6255 48.478 49.8899 48.9579 48.221C49.1999 47.3662 49.7716 46.654 50.567 46.2157C51.3467 45.7864 52.2632 45.6762 53.087 45.912L66.6015 50.376C67.5466 50.6878 68.5812 50.2831 69.0629 49.4117C69.5447 48.5401 69.3377 47.449 68.5702 46.8145C66.9634 45.4864 65.9995 43.9941 65.7047 42.3788C65.2511 39.8953 66.4651 36.9517 69.0356 34.3023C71.5171 31.7449 74.936 29.8137 77.9591 29.2624C83.7634 28.2028 89.3505 32.0616 90.4116 37.8668C90.9252 40.6789 90.313 43.5227 88.6874 45.8746C87.0616 48.2262 84.6176 49.8038 81.8055 50.3166C81.8041 50.3168 81.8026 50.3172 81.8014 50.3174C81.3182 50.4067 80.7995 50.4673 80.2604 50.4976C79.5859 50.5357 78.9725 50.9002 78.617 51.4748C78.2613 52.0491 78.2081 52.7606 78.4746 53.3815C79.4859 55.7371 79.9163 58.0803 79.754 60.346C79.1402 68.9184 70.7807 77.1048 62.8404 80.7614C57.1802 83.3675 52.0278 83.6141 49.0579 81.4204C48.4784 80.9922 46.7149 79.6894 46.1922 75.1295C46.1063 74.3797 45.6189 73.7358 44.9204 73.4495C44.667 73.3457 44.4005 73.2948 44.1358 73.2948C43.6701 73.2948 43.2099 73.4517 42.8356 73.7538L37.9946 77.6592C36.3574 78.3074 34.4699 77.5783 33.7072 75.9626C33.4929 75.51 33.3842 75.0275 33.3842 74.5287C33.3842 73.2286 34.1421 72.0313 35.3148 71.4783C35.4133 71.4317 35.5083 71.3777 35.5984 71.3162L41.8017 67.0857C43.5639 65.8818 45.6471 65.2757 47.6694 65.3761C48.396 65.41 49.1252 65.0432 49.5157 64.4264C50.8421 62.3302 53.6588 58.514 55.1018 57.2691C55.5728 56.7936 55.785 56.1191 55.6705 55.4589Z" fill="#E06742"/>
</svg>
