<svg width="133" height="128" viewBox="0 0 133 128" fill="none" xmlns="http://www.w3.org/2000/svg">
<path d="M7.59212 59.9961C3.39561 71.0032 2.12585 83.8759 7.91098 94.1603C10.4221 98.6194 14.1061 102.333 18.0293 105.666C42.4283 126.415 81.2163 137.612 108.73 117.228C123.979 105.935 125.767 82.481 122.806 64.9758C120.255 49.8906 112.403 35.5728 100.394 25.8596C83.6816 12.354 65.2616 10.7071 46.3745 19.2721C28.7853 27.2544 14.4079 42.1156 7.59212 59.9961Z" fill="#FFE4DC"/>
<path d="M53.2637 28.415V54.257" stroke="#E06742" stroke-width="4.5" stroke-linecap="round" stroke-linejoin="round"/>
<path d="M79.1057 69.762L53.2637 54.2568" stroke="#E06742" stroke-width="4.5" stroke-linecap="round" stroke-linejoin="round"/>
<path d="M86.8574 38.7519H110.115V15.4941" stroke="#E06742" stroke-width="4.5" stroke-linecap="round" stroke-linejoin="round"/>
<path d="M90.5648 91.168C83.4893 98.2195 74.4727 103.023 64.6554 104.971C54.8381 106.918 44.6612 105.923 35.4122 102.11C26.1631 98.2972 18.2575 91.8384 12.6952 83.5506C7.13296 75.2628 4.16406 65.5184 4.16406 55.5501C4.16406 45.5818 7.13296 35.8374 12.6952 27.5496C18.2575 19.2618 26.1631 12.803 35.4122 8.99014C44.6612 5.17731 54.8381 4.18179 64.6554 6.1295C74.4727 8.07722 83.4893 12.8807 90.5648 19.9322L110.116 39.3445" stroke="#E06742" stroke-width="4.5" stroke-linecap="round" stroke-linejoin="round"/>
<path d="M133.001 80.1686H114.625V76.3027L121.224 69.6318C122.554 68.2652 123.621 67.1264 124.424 66.2154C125.239 65.2924 125.827 64.4533 126.186 63.6981C126.558 62.9429 126.744 62.1338 126.744 61.2707C126.744 60.2278 126.45 59.4486 125.863 58.9332C125.287 58.4057 124.514 58.142 123.543 58.142C122.524 58.142 121.535 58.3757 120.576 58.8433C119.617 59.3108 118.616 59.976 117.574 60.8391L114.553 57.2609C115.308 56.6136 116.105 56.0023 116.944 55.4269C117.795 54.8515 118.778 54.39 119.893 54.0424C121.02 53.6827 122.368 53.5029 123.939 53.5029C125.665 53.5029 127.145 53.8146 128.38 54.4379C129.627 55.0613 130.586 55.9124 131.257 56.9912C131.928 58.0581 132.264 59.2688 132.264 60.6234C132.264 62.0738 131.976 63.3984 131.401 64.5971C130.825 65.7959 129.986 66.9826 128.883 68.1573C127.793 69.3321 126.474 70.6327 124.928 72.0592L121.547 75.2418V75.4935H133.001V80.1686Z" fill="#E06742"/>
<path d="M96.1572 80.1689L106.029 58.5559H93.0645V53.8809H111.926V57.3691L101.983 80.1689H96.1572Z" fill="#E06742"/>
</svg>
